<?xml version="1.0" encoding="UTF-8" standalone="no"?>
<!-- Created with Inkscape (http://www.inkscape.org/) -->

<svg
   width="114.08808mm"
   height="52.525059mm"
   viewBox="0 0 114.08808 52.525059"
   version="1.1"
   id="svg5"
   inkscape:version="1.2.1 (9c6d41e, 2022-07-14)"
   sodipodi:docname="logo-mobile.svg"
   xmlns:inkscape="http://www.inkscape.org/namespaces/inkscape"
   xmlns:sodipodi="http://sodipodi.sourceforge.net/DTD/sodipodi-0.dtd"
   xmlns="http://www.w3.org/2000/svg"
   xmlns:svg="http://www.w3.org/2000/svg">
  <sodipodi:namedview
     id="namedview7"
     pagecolor="#ffffff"
     bordercolor="#666666"
     borderopacity="1.0"
     inkscape:showpageshadow="2"
     inkscape:pageopacity="0.0"
     inkscape:pagecheckerboard="0"
     inkscape:deskcolor="#d1d1d1"
     inkscape:document-units="mm"
     showgrid="false"
     inkscape:zoom="1.4450167"
     inkscape:cx="197.57557"
     inkscape:cy="102.07494"
     inkscape:window-width="1440"
     inkscape:window-height="847"
     inkscape:window-x="0"
     inkscape:window-y="25"
     inkscape:window-maximized="0"
     inkscape:current-layer="text113" />
  <defs
     id="defs2" />
  <g
     inkscape:label="Layer 1"
     inkscape:groupmode="layer"
     id="layer1"
     transform="translate(-45.674561,-60.146866)">
    <g
       aria-label="V4V"
       id="text113"
       style="font-size:74.0833px;line-height:1.25;stroke-width:0.264583">
      <path
         d="m 45.674561,61.332198 h 18.224491 v 1.259417 h -4.741331 l 10.297578,34.078316 q 2.370666,-7.037913 4.000499,-12.001494 1.629832,-4.963581 2.741082,-8.371412 1.111249,-3.407832 1.703915,-5.408081 0.66675,-2.074332 0.963083,-3.259665 0.296333,-1.185333 0.370417,-1.703916 0.07408,-0.592666 0.07408,-0.963083 0,-0.963083 -0.592666,-1.407583 -0.518583,-0.518583 -1.407583,-0.740833 -0.814916,-0.222249 -1.777999,-0.222249 -0.889,0 -1.555749,0 h -0.22225 v -1.259417 h 13.631327 v 1.259417 h -0.592667 q -1.777999,0 -2.741082,0.148166 -0.963083,0.07408 -1.555749,0.66675 -0.592666,0.518583 -1.037166,1.703916 -0.4445,1.185332 -1.11125,3.259665 L 65.825218,112.67192 49.600976,62.591615 h -3.926415 z"
         style="font-family:Vogue;-inkscape-font-specification:Vogue;fill:#2f2f41"
         id="path8984" />
      <path
         d="m 116.27585,88.224436 v 5.111747 h -5.85258 v 16.150157 h 5.70442 v 1.25942 H 97.53278 v -1.25942 h 5.55625 V 93.336183 H 86.716619 q -0.518583,0 -0.518583,-0.296333 l 0.22225,-0.4445 v 0.07408 L 107.83036,60.146866 h 1.25941 l -18.07632,28.07757 h 12.22374 V 76.889691 l 7.18608,-9.778995 v 21.11374 z"
         style="fill:#e5261f"
         id="path8986" />
      <path
         d="m 118.05375,61.332198 h 18.22449 v 1.259417 h -4.74133 l 10.29758,34.078316 q 2.37066,-7.037913 4.0005,-12.001494 1.62983,-4.963581 2.74108,-8.371412 1.11125,-3.407832 1.70391,-5.408081 0.66675,-2.074332 0.96309,-3.259665 0.29633,-1.185333 0.37041,-1.703916 0.0741,-0.592666 0.0741,-0.963083 0,-0.963083 -0.59267,-1.407583 -0.51858,-0.518583 -1.40758,-0.740833 -0.81492,-0.222249 -1.778,-0.222249 -0.889,0 -1.55575,0 h -0.22225 v -1.259417 h 13.63133 v 1.259417 h -0.59267 q -1.778,0 -2.74108,0.148166 -0.96309,0.07408 -1.55575,0.66675 -0.59267,0.518583 -1.03717,1.703916 -0.4445,1.185332 -1.11125,3.259665 L 138.20441,112.67192 121.98016,62.591615 h -3.92641 z"
         style="font-family:Vogue;-inkscape-font-specification:Vogue;fill:#2f2f41"
         id="path8988" />
    </g>
  </g>
</svg>
