<?xml version="1.0" encoding="UTF-8" standalone="no"?>
<!-- Created with Inkscape (http://www.inkscape.org/) -->

<svg
   width="444.27679mm"
   height="52.525059mm"
   viewBox="0 0 444.27679 52.525059"
   version="1.1"
   id="svg5"
   inkscape:version="1.2.1 (9c6d41e, 2022-07-14)"
   sodipodi:docname="logo.svg"
   xmlns:inkscape="http://www.inkscape.org/namespaces/inkscape"
   xmlns:sodipodi="http://sodipodi.sourceforge.net/DTD/sodipodi-0.dtd"
   xmlns="http://www.w3.org/2000/svg"
   xmlns:svg="http://www.w3.org/2000/svg">
  <sodipodi:namedview
     id="namedview7"
     pagecolor="#ffffff"
     bordercolor="#666666"
     borderopacity="1.0"
     inkscape:showpageshadow="2"
     inkscape:pageopacity="0.0"
     inkscape:pagecheckerboard="0"
     inkscape:deskcolor="#d1d1d1"
     inkscape:document-units="mm"
     showgrid="false"
     inkscape:zoom="1.4450167"
     inkscape:cx="1355.3477"
     inkscape:cy="102.76698"
     inkscape:window-width="1440"
     inkscape:window-height="847"
     inkscape:window-x="0"
     inkscape:window-y="25"
     inkscape:window-maximized="0"
     inkscape:current-layer="layer1" />
  <defs
     id="defs2" />
  <g
     inkscape:label="Layer 1"
     inkscape:groupmode="layer"
     id="layer1"
     transform="translate(-45.674561,-60.146866)">
    <g
       aria-label="VALUE4VALUE"
       id="text113"
       style="font-size:74.0833px;line-height:1.25;stroke-width:0.264583">
      <path
         d="m 45.674561,61.332198 h 18.224491 v 1.259417 h -4.741331 l 10.297578,34.078316 q 2.370666,-7.037913 4.000499,-12.001494 1.629832,-4.963581 2.741082,-8.371412 1.111249,-3.407832 1.703915,-5.408081 0.66675,-2.074332 0.963083,-3.259665 0.296333,-1.185333 0.370417,-1.703916 0.07408,-0.592666 0.07408,-0.963083 0,-0.963083 -0.592666,-1.407583 -0.518583,-0.518583 -1.407583,-0.740833 -0.814916,-0.222249 -1.777999,-0.222249 -0.889,0 -1.555749,0 h -0.22225 v -1.259417 h 13.631327 v 1.259417 h -0.592667 q -1.777999,0 -2.741082,0.148166 -0.963083,0.07408 -1.555749,0.66675 -0.592666,0.518583 -1.037166,1.703916 -0.4445,1.185332 -1.11125,3.259665 L 65.825218,112.67192 49.600976,62.591615 h -3.926415 z"
         style="font-family:Vogue;-inkscape-font-specification:Vogue;fill:#2f2f41"
         id="path9006" />
      <path
         d="m 84.93862,109.48634 q 1.629832,0 2.666998,-0.22225 1.037167,-0.22225 1.703916,-0.81491 0.66675,-0.59267 1.11125,-1.70392 0.4445,-1.18533 1.037166,-2.96333 3.185582,-10.816163 6.445247,-21.558242 3.259663,-10.816161 6.519333,-21.632323 h 2.51883 l 15.77974,48.894975 h 3.25967 v 1.25942 h -17.70591 v -1.25942 h 4.96358 L 108.49711,94.595599 H 95.606615 l -0.518583,1.481666 q -0.370417,1.11125 -0.889,2.815165 -0.518583,1.70392 -1.037166,3.40783 -0.4445,1.70392 -0.814916,3.1115 -0.370417,1.40758 -0.370417,1.92617 0,0.889 0.66675,1.3335 0.740833,0.4445 1.703916,0.66675 0.963082,0.14816 1.926165,0.14816 1.037166,0 1.629833,0 h 0.148166 v 1.25942 H 84.93862 Z M 95.977031,93.336183 h 12.149659 l -6.223,-19.409824 z"
         style="font-family:Vogue;-inkscape-font-specification:Vogue;fill:#2f2f41"
         id="path9008" />
      <path
         d="m 163.54095,94.373349 v 16.372411 h -36.52307 v -1.25942 h 4.66725 V 62.591615 h -4.66725 v -1.259417 h 18.22449 v 1.259417 h -5.18583 v 46.894725 h 8.66775 q 3.40783,0 5.92666,-0.29633 2.59292,-0.37042 4.29683,-1.85208 1.70392,-1.48167 2.51883,-4.51908 0.889,-3.03742 0.889,-8.445501 z"
         style="font-family:Vogue;-inkscape-font-specification:Vogue;fill:#2f2f41"
         id="path9010" />
      <path
         d="m 210.65785,62.591615 h -1.18533 q -1.48167,0 -2.44475,0.07408 -0.889,0.07408 -1.48167,0.66675 -0.51858,0.518583 -0.74083,1.777999 -0.14817,1.259416 -0.14817,3.555998 v 25.262404 q 0,9.630831 -3.92641,13.779491 -3.85233,4.07458 -11.63108,4.07458 -2.44475,0 -5.40808,-0.37041 -2.88925,-0.37042 -5.55625,-1.48167 -2.59291,-1.18533 -4.59316,-3.25966 -1.92617,-2.07434 -2.37067,-5.48217 -0.14817,-0.81491 -0.14817,-2.07433 0,-1.259416 0,-2.741082 V 62.591615 h -4.66724 v -1.259417 h 18.74307 v 1.259417 h -4.74133 v 31.929901 q 0,3.407832 0.37042,6.297084 0.4445,2.81516 1.55575,4.88949 1.18533,2.07434 3.18558,3.25967 2.00025,1.18533 5.11174,1.18533 3.40784,0 5.7785,-1.18533 2.44475,-1.25942 3.85233,-3.48192 1.48167,-2.29658 2.14842,-5.48216 0.66675,-3.259665 0.66675,-7.18608 V 68.666445 q 0,-2.370666 -0.29633,-3.630082 -0.22225,-1.259416 -0.81492,-1.852082 -0.59267,-0.592666 -1.55575,-0.66675 -0.96308,-0.07408 -2.37067,0 -0.37041,0 -0.81491,0.07408 -0.37042,0 -0.889,0 v -1.259417 h 14.37216 z"
         style="font-family:Vogue;-inkscape-font-specification:Vogue;fill:#2f2f41"
         id="path9012" />
      <path
         d="m 225.84486,109.26409 h 7.18608 q 3.40783,0 6.29708,-0.14816 2.96333,-0.22225 5.11175,-1.40759 2.14842,-1.25941 3.40783,-3.92641 1.25942,-2.667 1.25942,-7.630582 h 1.25941 v 14.594412 h -37.18981 v -1.25942 h 3.70416 V 62.591615 h -3.70416 v -1.259417 h 37.11573 l 0.0741,12.149661 h -1.25941 q -0.59267,-4.074581 -2.14842,-6.222997 -1.48166,-2.222499 -3.70416,-3.185582 -2.14842,-1.037166 -4.96358,-1.111249 -2.74109,-0.148167 -5.92667,-0.148167 h -6.51933 v 21.854573 h 1.92617 q 2.29658,0 4.0005,-0.148166 1.77799,-0.148167 2.96333,-0.963083 1.18533,-0.814916 1.778,-2.518832 0.59266,-1.777999 0.66675,-4.889498 h 1.18533 v 18.668991 h -1.18533 q -0.0741,-2.815165 -0.59267,-4.444998 -0.4445,-1.703916 -1.3335,-2.518832 -0.889,-0.889 -2.14842,-1.111249 -1.25941,-0.296334 -2.88924,-0.296334 h -4.37092 z"
         style="font-family:Vogue;-inkscape-font-specification:Vogue;fill:#2f2f41"
         id="path9014" />
      <path
         d="m 283.48157,88.224436 v 5.111747 h -5.85258 v 16.150157 h 5.70441 v 1.25942 h -18.59491 v -1.25942 h 5.55625 V 93.336183 h -16.37241 q -0.51858,0 -0.51858,-0.296333 l 0.22225,-0.4445 v 0.07408 l 21.41007,-32.522567 h 1.25942 l -18.07633,28.07757 h 12.22375 V 76.889691 l 7.18608,-9.778995 v 21.11374 z"
         style="fill:#e5261f"
         id="path9016" />
      <path
         d="m 285.25946,61.332198 h 18.22449 v 1.259417 h -4.74133 l 10.29758,34.078316 q 2.37066,-7.037913 4.0005,-12.001494 1.62983,-4.963581 2.74108,-8.371412 1.11125,-3.407832 1.70392,-5.408081 0.66675,-2.074332 0.96308,-3.259665 0.29633,-1.185333 0.37041,-1.703916 0.0741,-0.592666 0.0741,-0.963083 0,-0.963083 -0.59267,-1.407583 -0.51858,-0.518583 -1.40758,-0.740833 -0.81492,-0.222249 -1.778,-0.222249 -0.889,0 -1.55575,0 h -0.22225 v -1.259417 h 13.63133 v 1.259417 h -0.59267 q -1.778,0 -2.74108,0.148166 -0.96308,0.07408 -1.55575,0.66675 -0.59267,0.518583 -1.03717,1.703916 -0.4445,1.185332 -1.11125,3.259665 L 305.41012,112.67192 289.18588,62.591615 h -3.92642 z"
         style="font-family:Vogue;-inkscape-font-specification:Vogue;fill:#2f2f41"
         id="path9018" />
      <path
         d="m 324.52353,109.48634 q 1.62983,0 2.667,-0.22225 1.03716,-0.22225 1.70391,-0.81491 0.66675,-0.59267 1.11125,-1.70392 0.4445,-1.18533 1.03717,-2.96333 3.18558,-10.816163 6.44524,-21.558242 3.25967,-10.816161 6.51933,-21.632323 h 2.51884 l 15.77974,48.894975 h 3.25966 v 1.25942 h -17.7059 v -1.25942 h 4.96358 l -4.74133,-14.890741 h -12.8905 l -0.51858,1.481666 q -0.37042,1.11125 -0.889,2.815165 -0.51858,1.70392 -1.03717,3.40783 -0.4445,1.70392 -0.81491,3.1115 -0.37042,1.40758 -0.37042,1.92617 0,0.889 0.66675,1.3335 0.74083,0.4445 1.70392,0.66675 0.96308,0.14816 1.92616,0.14816 1.03717,0 1.62983,0 h 0.14817 v 1.25942 h -13.11274 z m 11.03841,-16.150157 h 12.14966 l -6.223,-19.409824 z"
         style="font-family:Vogue;-inkscape-font-specification:Vogue;fill:#2f2f41"
         id="path9020" />
      <path
         d="m 403.12585,94.373349 v 16.372411 h -36.52307 v -1.25942 h 4.66725 V 62.591615 h -4.66725 v -1.259417 h 18.22449 v 1.259417 h -5.18583 v 46.894725 h 8.66775 q 3.40783,0 5.92666,-0.29633 2.59292,-0.37042 4.29683,-1.85208 1.70392,-1.48167 2.51883,-4.51908 0.889,-3.03742 0.889,-8.445501 z"
         style="font-family:Vogue;-inkscape-font-specification:Vogue;fill:#2f2f41"
         id="path9022" />
      <path
         d="m 450.24276,62.591615 h -1.18534 q -1.48166,0 -2.44475,0.07408 -0.88899,0.07408 -1.48166,0.66675 -0.51858,0.518583 -0.74083,1.777999 -0.14817,1.259416 -0.14817,3.555998 v 25.262404 q 0,9.630831 -3.92642,13.779491 -3.85233,4.07458 -11.63107,4.07458 -2.44475,0 -5.40808,-0.37041 -2.88925,-0.37042 -5.55625,-1.48167 -2.59292,-1.18533 -4.59317,-3.25966 -1.92616,-2.07434 -2.37066,-5.48217 -0.14817,-0.81491 -0.14817,-2.07433 0,-1.259416 0,-2.741082 V 62.591615 h -4.66725 v -1.259417 h 18.74308 v 1.259417 h -4.74133 v 31.929901 q 0,3.407832 0.37041,6.297084 0.4445,2.81516 1.55575,4.88949 1.18534,2.07434 3.18558,3.25967 2.00025,1.18533 5.11175,1.18533 3.40783,0 5.7785,-1.18533 2.44475,-1.25942 3.85233,-3.48192 1.48167,-2.29658 2.14842,-5.48216 0.66675,-3.259665 0.66675,-7.18608 V 68.666445 q 0,-2.370666 -0.29634,-3.630082 -0.22225,-1.259416 -0.81491,-1.852082 -0.59267,-0.592666 -1.55575,-0.66675 -0.96309,-0.07408 -2.37067,0 -0.37041,0 -0.81491,0.07408 -0.37042,0 -0.889,0 v -1.259417 h 14.37216 z"
         style="font-family:Vogue;-inkscape-font-specification:Vogue;fill:#2f2f41"
         id="path9024" />
      <path
         d="m 465.42978,109.26409 h 7.18608 q 3.40783,0 6.29708,-0.14816 2.96333,-0.22225 5.11174,-1.40759 2.14842,-1.25941 3.40784,-3.92641 1.25941,-2.667 1.25941,-7.630582 h 1.25942 v 14.594412 h -37.18982 v -1.25942 h 3.70417 V 62.591615 h -3.70417 v -1.259417 h 37.11574 l 0.0741,12.149661 h -1.25942 q -0.59266,-4.074581 -2.14841,-6.222997 -1.48167,-2.222499 -3.70417,-3.185582 -2.14841,-1.037166 -4.96358,-1.111249 -2.74108,-0.148167 -5.92666,-0.148167 h -6.51933 v 21.854573 h 1.92616 q 2.29658,0 4.0005,-0.148166 1.778,-0.148167 2.96333,-0.963083 1.18534,-0.814916 1.778,-2.518832 0.59267,-1.777999 0.66675,-4.889498 h 1.18533 v 18.668991 h -1.18533 q -0.0741,-2.815165 -0.59267,-4.444998 -0.44449,-1.703916 -1.33349,-2.518832 -0.889,-0.889 -2.14842,-1.111249 -1.25942,-0.296334 -2.88925,-0.296334 h -4.37091 z"
         style="font-family:Vogue;-inkscape-font-specification:Vogue;fill:#2f2f41"
         id="path9026" />
    </g>
  </g>
</svg>
