<?xml version="1.0" encoding="UTF-8" standalone="no"?>
<!-- Created with Inkscape (http://www.inkscape.org/) -->

<svg
   width="148.24626mm"
   height="92.829041mm"
   viewBox="0 0 148.24626 92.829041"
   version="1.1"
   id="svg5"
   inkscape:version="1.2.1 (9c6d41e, 2022-07-14)"
   sodipodi:docname="logo-mobile.svg"
   xmlns:inkscape="http://www.inkscape.org/namespaces/inkscape"
   xmlns:sodipodi="http://sodipodi.sourceforge.net/DTD/sodipodi-0.dtd"
   xmlns="http://www.w3.org/2000/svg"
   xmlns:svg="http://www.w3.org/2000/svg">
  <sodipodi:namedview
     id="namedview7"
     pagecolor="#ffffff"
     bordercolor="#666666"
     borderopacity="1.0"
     inkscape:showpageshadow="2"
     inkscape:pageopacity="0.0"
     inkscape:pagecheckerboard="0"
     inkscape:deskcolor="#d1d1d1"
     inkscape:document-units="mm"
     showgrid="false"
     inkscape:zoom="1.1570219"
     inkscape:cx="188.41476"
     inkscape:cy="96.368098"
     inkscape:window-width="1920"
     inkscape:window-height="1027"
     inkscape:window-x="0"
     inkscape:window-y="25"
     inkscape:window-maximized="0"
     inkscape:current-layer="layer1" />
  <defs
     id="defs2" />
  <g
     inkscape:label="Layer 1"
     inkscape:groupmode="layer"
     id="layer1"
     transform="translate(-255.89612,-52.566712)">
    <g
       aria-label="V"
       id="text113"
       style="font-size:74.0833px;line-height:1.25;stroke-width:5.29167;fill:#2f2f41;fill-opacity:1">
      <path
         d="m 296.49377,72.866848 h 13.92766 l -28.89249,51.932392 h -14.07582 l -11.557,-51.932392 h 14.52033 l 6.74158,37.782482 z"
         style="font-style:italic;font-weight:bold;font-family:Gontserrat;-inkscape-font-specification:'Gontserrat Bold Italic';fill:#2f2f41;fill-opacity:1"
         id="path1336" />
    </g>
    <g
       aria-label="V"
       id="text15879"
       style="font-size:74.0833px;line-height:1.25;stroke-width:5.29167;fill:#2f2f41;fill-opacity:1">
      <path
         d="m 390.21472,73.015011 h 13.92766 L 375.24989,124.9474 H 361.17406 L 349.61707,73.015011 h 14.52033 l 6.74158,37.782479 z"
         style="font-style:italic;font-weight:bold;font-family:Gontserrat;-inkscape-font-specification:'Gontserrat Bold Italic';fill:#2f2f41;fill-opacity:1"
         id="path1339" />
    </g>
    <path
       id="path4074"
       style="fill:#ef272a;fill-opacity:1;stroke:#2f2f41;stroke-width:2.82513;stroke-dasharray:none;stroke-opacity:1"
       d="m 329.8574,54.350945 c 0,0 0.0102,-0.359535 -0.35651,-0.371252 -0.36612,-0.01159 -0.54939,0.371373 -0.54939,0.371373 l -27.40021,47.110574 c -0.54017,0.92893 0.67218,2.38364 1.98703,2.38364 h 27.45357 l -10.6409,39.56912 c -0.10363,0.38523 0.58012,0.77102 0.79336,0.44772 l 33.80756,-51.301432 c 0.60334,-0.91557 -0.61852,-2.426122 -1.96213,-2.426122 h -9.30545 l 1.47407,-5.691029 c 0.2367,-0.913472 -0.38575,-1.648382 -1.39623,-1.648382 h -5.62907 c -1.01048,0 -2.01425,0.73491 -2.25093,1.648382 l -1.47406,5.691029 h -8.00037 z"
       sodipodi:nodetypes="czccsccccsccsscccc" />
  </g>
</svg>
