<?xml version="1.0" encoding="UTF-8" standalone="no"?>
<!-- Created with Inkscape (http://www.inkscape.org/) -->

<svg
   width="105mm"
   height="105mm"
   viewBox="0 0 105 105"
   version="1.1"
   id="svg5"
   inkscape:version="1.2.1 (9c6d41e, 2022-07-14)"
   sodipodi:docname="v4v-bolt-4.svg"
   xml:space="preserve"
   inkscape:export-filename="v4v-bolt-square-4-upright.png"
   inkscape:export-xdpi="356"
   inkscape:export-ydpi="356"
   xmlns:inkscape="http://www.inkscape.org/namespaces/inkscape"
   xmlns:sodipodi="http://sodipodi.sourceforge.net/DTD/sodipodi-0.dtd"
   xmlns="http://www.w3.org/2000/svg"
   xmlns:svg="http://www.w3.org/2000/svg"><sodipodi:namedview
     id="namedview7"
     pagecolor="#ffffff"
     bordercolor="#666666"
     borderopacity="1.0"
     inkscape:showpageshadow="2"
     inkscape:pageopacity="0.0"
     inkscape:pagecheckerboard="0"
     inkscape:deskcolor="#d1d1d1"
     inkscape:document-units="mm"
     showgrid="false"
     inkscape:zoom="1.719575"
     inkscape:cx="216.6233"
     inkscape:cy="210.22637"
     inkscape:window-width="1920"
     inkscape:window-height="1027"
     inkscape:window-x="0"
     inkscape:window-y="25"
     inkscape:window-maximized="0"
     inkscape:current-layer="layer1" /><defs
     id="defs2" /><g
     inkscape:label="Layer 1"
     inkscape:groupmode="layer"
     id="layer1"><text
       xml:space="preserve"
       style="font-style:normal;font-weight:normal;font-size:46.7787px;line-height:1.25;font-family:sans-serif;fill:#2f2f41;fill-opacity:1;stroke:none;stroke-width:1.16946"
       x="2.6808445"
       y="68.895935"
       id="text1574"><tspan
         sodipodi:role="line"
         id="tspan1572"
         style="font-style:normal;font-variant:normal;font-weight:bold;font-stretch:normal;font-family:Gontserrat;-inkscape-font-specification:'Gontserrat Bold';fill:#2f2f41;fill-opacity:1;stroke-width:1.16946"
         x="2.6808445"
         y="68.895935">V   V</tspan></text><g
       id="hair"
       style="fill:#ffdd55;fill-opacity:1;stroke:none;stroke-opacity:1"
       transform="matrix(0.83919607,0,0,0.83919607,18.750023,15.980454)" /><g
       id="skin"
       style="fill:#ffdd55;fill-opacity:1;stroke:none;stroke-opacity:1"
       transform="matrix(0.83919607,0,0,0.83919607,18.750023,15.980454)" /><g
       id="skin-shadow"
       style="fill:#ffdd55;fill-opacity:1;stroke:none;stroke-opacity:1"
       transform="matrix(0.83919607,0,0,0.83919607,18.750023,15.980454)" /><path
       id="path4074"
       style="fill:#ffdd55;fill-opacity:1;stroke:#2f2f41;stroke-width:1.65;stroke-dasharray:none;stroke-opacity:1"
       d="M 56.843432,25.764271 36.397154,54.401283 c -0.3873,0.54254 0.208305,1.392163 0.976249,1.392163 H 53.407566 L 44.13378,78.903663 c -0.09027,0.224988 0.279197,0.450302 0.428737,0.261483 L 68.273744,49.202634 c 0.423158,-0.534735 -0.173689,-1.416968 -0.958419,-1.416968 H 61.880511 L 63.1814,44.461838 c 0.208846,-0.53351 -0.09787,-0.962732 -0.688032,-0.962732 h -3.287655 c -0.590158,0 -1.233223,0.429222 -1.442071,0.962732 l -1.300888,3.323828 h -4.672583 z" /><text
       xml:space="preserve"
       style="font-style:normal;font-weight:normal;font-size:46.7787px;line-height:1.25;font-family:sans-serif;fill:#2f2f41;fill-opacity:1;stroke:none;stroke-width:1.16946"
       x="119.89453"
       y="53.568378"
       id="text1574-9"><tspan
         sodipodi:role="line"
         id="tspan1572-8"
         style="font-style:normal;font-variant:normal;font-weight:bold;font-stretch:normal;font-family:Gontserrat;-inkscape-font-specification:'Gontserrat Bold';fill:#2f2f41;fill-opacity:1;stroke-width:1.16946"
         x="119.89453"
         y="53.568378">V   V</tspan></text><g
       id="hair-6"
       style="fill:#ffdd55;fill-opacity:1;stroke:none;stroke-opacity:1"
       transform="matrix(0.83919607,0,0,0.83919607,135.96371,0.65289749)" /><g
       id="skin-5"
       style="fill:#ffdd55;fill-opacity:1;stroke:none;stroke-opacity:1"
       transform="matrix(0.83919607,0,0,0.83919607,135.96371,0.65289749)" /><g
       id="skin-shadow-7"
       style="fill:#ffdd55;fill-opacity:1;stroke:none;stroke-opacity:1"
       transform="matrix(0.83919607,0,0,0.83919607,135.96371,0.65289749)" /><path
       id="path4074-6"
       style="fill:#ffdd55;fill-opacity:1;stroke:#2f2f41;stroke-width:0.839196;stroke-opacity:1"
       d="m 179.90401,10.436714 -26.70896,28.637012 c -0.50595,0.54254 -0.0962,1.392163 0.67179,1.392163 h 16.03417 L 155.5732,63.576106 c -0.13948,0.224988 0.18072,0.450302 0.37155,0.261483 l 30.26379,-29.962512 c 0.5401,-0.534735 0.13619,-1.416968 -0.64854,-1.416968 h -5.43481 l 2.02778,-3.323828 c 0.32552,-0.53351 0.11267,-0.962732 -0.47749,-0.962732 h -3.28765 c -0.59016,0 -1.32709,0.429222 -1.65262,0.962732 l -2.02778,3.323828 h -4.67258 z" /><text
       xml:space="preserve"
       style="font-style:normal;font-weight:normal;font-size:46.7787px;line-height:1.25;font-family:sans-serif;fill:#2f2f41;fill-opacity:1;stroke:none;stroke-width:1.16946"
       x="123.77303"
       y="119.5177"
       id="text3119"><tspan
         sodipodi:role="line"
         id="tspan3117"
         style="font-style:normal;font-variant:normal;font-weight:bold;font-stretch:normal;font-family:Gontserrat;-inkscape-font-specification:'Gontserrat Bold';fill:#2f2f41;fill-opacity:1;stroke-width:1.16946"
         x="123.77303"
         y="119.5177">V   V</tspan></text><path
       id="path3121"
       style="fill:#ffdd55;fill-opacity:1;stroke:#2f2f41;stroke-width:1.65;stroke-dasharray:none;stroke-opacity:1"
       d="m 183.78251,76.386035 -26.70896,28.637015 c -0.50595,0.54254 -0.0961,1.39216 0.67179,1.39216 h 16.03416 l -14.3278,23.11022 c -0.13948,0.22499 0.18072,0.4503 0.37155,0.26148 l 30.26379,-29.962512 c 0.5401,-0.534735 0.13619,-1.416968 -0.64854,-1.416968 h -5.43482 l 2.02779,-3.323828 c 0.32552,-0.53351 0.11267,-0.962732 -0.47749,-0.962732 h -3.28766 c -0.59015,0 -1.32709,0.429222 -1.65261,0.962732 l -2.02778,3.323828 h -4.67259 z" /></g></svg>
