<?xml version="1.0" encoding="UTF-8" standalone="no"?>
<!-- Created with Inkscape (http://www.inkscape.org/) -->

<svg
   width="120.35368mm"
   height="117.87012mm"
   viewBox="0 0 120.35368 117.87012"
   version="1.1"
   id="svg681"
   inkscape:version="1.2.1 (9c6d41e, 2022-07-14)"
   sodipodi:docname="talent.svg"
   xmlns:inkscape="http://www.inkscape.org/namespaces/inkscape"
   xmlns:sodipodi="http://sodipodi.sourceforge.net/DTD/sodipodi-0.dtd"
   xmlns="http://www.w3.org/2000/svg"
   xmlns:svg="http://www.w3.org/2000/svg">
  <sodipodi:namedview
     id="namedview683"
     pagecolor="#ffffff"
     bordercolor="#666666"
     borderopacity="1.0"
     inkscape:showpageshadow="2"
     inkscape:pageopacity="0.0"
     inkscape:pagecheckerboard="0"
     inkscape:deskcolor="#d1d1d1"
     inkscape:document-units="mm"
     showgrid="false"
     inkscape:zoom="1.0961507"
     inkscape:cx="166.94785"
     inkscape:cy="226.70241"
     inkscape:window-width="1440"
     inkscape:window-height="847"
     inkscape:window-x="0"
     inkscape:window-y="25"
     inkscape:window-maximized="0"
     inkscape:current-layer="layer1" />
  <defs
     id="defs678" />
  <g
     inkscape:label="Layer 1"
     inkscape:groupmode="layer"
     id="layer1"
     transform="translate(-63.153676,4.4617728)">
    <path
       d="m 107.2509,-3.2658551 c -6.59694,0 -11.96975,5.1717226 -12.322528,11.680473 -1.337028,-0.3668889 -2.741083,-0.5679723 -4.191,-0.5679723 -8.734779,0 -15.815029,7.0802504 -15.815029,15.8150284 0,1.319389 0.165806,2.599973 0.469194,3.824112 -5.552722,1.210028 -9.7155,6.148917 -9.7155,12.065 0,3.238501 1.255889,6.17714 3.294945,8.382001 -2.853973,2.8575 -4.617862,6.805084 -4.617862,11.16189 0,6.06425 3.414889,11.327695 8.424334,13.980584 -1.781528,2.561167 -2.829278,5.669139 -2.829278,9.024056 0,8.731251 7.08025,15.811501 15.815029,15.811501 0.772583,0 1.531055,-0.05644 2.275417,-0.165806 0.684389,8.103308 7.475361,14.463888 15.751528,14.463888 8.73478,0 15.81503,-7.07672 15.81503,-15.811499 V 9.0919512 c 0,-6.8262504 -5.53156,-12.3578063 -12.35428,-12.3578063"
       style="fill:#cccccc;fill-opacity:1;fill-rule:nonzero;stroke:none;stroke-width:0.0352778"
       id="path320" />
    <path
       d="m 88.038622,96.549096 c 0.268111,0 0.532694,0.08819 0.747889,0.257527 0.257527,0.208139 0.419805,0.511528 0.448027,0.839612 0.631473,7.493005 7.027334,13.366755 14.555612,13.366755 8.06097,0 14.61558,-6.55814 14.61558,-14.615589 V 9.0919512 c 0,-6.1524448 -5.00591,-11.1583618 -11.15483,-11.1583618 -5.91961,0 -10.805583,4.6319725 -11.126611,10.5445285 C 96.10665,8.841479 95.923205,9.1730901 95.6304,9.3847568 95.334067,9.5999513 94.960122,9.6669791 94.610872,9.5682013 93.3444,9.222479 92.04265,9.0460901 90.737372,9.0460901 c -8.060973,0 -14.615584,6.5546119 -14.615584,14.6155839 0,1.188862 0.144638,2.377723 0.433916,3.534834 0.07761,0.3175 0.02469,0.649111 -0.148166,0.924278 -0.169334,0.275166 -0.4445,0.469194 -0.762001,0.536222 -5.083528,1.107722 -8.770056,5.690306 -8.770056,10.893778 0,2.808112 1.054806,5.492751 2.973917,7.567084 0.437445,0.472723 0.423334,1.202973 -0.03175,1.661584 -2.748139,2.758722 -4.265083,6.420556 -4.265083,10.315223 0,5.42925 2.9845,10.378722 7.785806,12.92225 0.303389,0.162278 0.522111,0.4445 0.60325,0.776112 0.08114,0.335139 0.01764,0.687916 -0.179917,0.970139 -1.710972,2.455333 -2.614083,5.337528 -2.614083,8.336139 0,8.057445 6.554611,14.612056 14.615584,14.612056 0.691444,0 1.400528,-0.04939 2.106083,-0.151694 0.05644,-0.0071 0.112889,-0.01058 0.169334,-0.01058 z m 15.751528,16.859254 c -8.35025,0 -15.504584,-6.20889 -16.799278,-14.343949 -0.409223,0.03175 -0.821973,0.04586 -1.227667,0.04586 -9.380362,0 -17.010946,-7.630583 -17.010946,-17.010945 0,-3.055056 0.804334,-6.007806 2.338917,-8.614834 -4.924778,-3.104445 -7.9375,-8.505473 -7.9375,-14.389806 0,-4.162778 1.488722,-8.099779 4.208639,-11.200696 -1.866195,-2.38125 -2.885723,-5.305778 -2.885723,-8.343195 0,-5.923139 3.933473,-11.179528 9.507362,-12.929306 -0.172861,-0.977194 -0.261056,-1.9685 -0.261056,-2.959806 0,-9.380361 7.634112,-17.0144729 17.014474,-17.0144729 1.051278,0 2.106083,0.098778 3.14325,0.2963333 1.033639,-6.50169481 6.656918,-11.4053062 13.370278,-11.4053062 7.47183,0 13.55372,6.0783615 13.55372,13.553723 V 96.397401 c 0,9.380359 -7.63411,17.010949 -17.01447,17.010949"
       style="fill:#808080;fill-opacity:1;fill-rule:nonzero;stroke:none;stroke-width:0.0352778"
       id="path322" />
    <path
       d="m 107.2509,21.44623 c -6.82625,0 -12.357806,-5.531556 -12.357806,-12.3542788"
       style="fill:#cccccc;fill-opacity:1;fill-rule:nonzero;stroke:none;stroke-width:0.0352778"
       id="path324" />
    <path
       d="m 107.2509,22.645674 c -7.475361,0 -13.553722,-6.081889 -13.553722,-13.5537228 0,-0.6632222 0.536222,-1.1994445 1.195916,-1.1994445 0.663223,0 1.199445,0.5362223 1.199445,1.1994445 0,6.1489168 5.005921,11.1548338 11.158361,11.1548338 0.6597,0 1.19592,0.536223 1.19592,1.199445 0,0.659694 -0.53622,1.199444 -1.19592,1.199444"
       style="fill:#808080;fill-opacity:1;fill-rule:nonzero;stroke:none;stroke-width:0.0352778"
       id="path326" />
    <path
       d="m 103.79015,112.2089 c -8.73125,0 -15.811501,-7.07672 -15.811501,-15.811499 0,-8.734778 7.080251,-15.815029 15.811501,-15.815029"
       style="fill:#cccccc;fill-opacity:1;fill-rule:nonzero;stroke:none;stroke-width:0.0352778"
       id="path328" />
    <path
       d="m 103.79015,113.40835 c -9.380361,0 -17.010945,-7.63059 -17.010945,-17.010949 0,-9.380362 7.630584,-17.014473 17.010945,-17.014473 0.66322,0 1.19944,0.536222 1.19944,1.199444 0,0.663223 -0.53622,1.199445 -1.19944,1.199445 -8.057445,0 -14.615584,6.558139 -14.615584,14.615584 0,8.057449 6.558139,14.615589 14.615584,14.615589 0.66322,0 1.19944,0.53622 1.19944,1.19591 0,0.66322 -0.53622,1.19945 -1.19944,1.19945"
       style="fill:#808080;fill-opacity:1;fill-rule:nonzero;stroke:none;stroke-width:0.0352778"
       id="path330" />
    <path
       d="m 64.35312,59.098204 c 0,-4.353278 1.760361,-8.293806 4.607278,-11.158361 2.864556,-2.878667 6.833306,-4.656667 11.207751,-4.656667 3.139722,0 6.067778,0.92075 8.530167,2.497666 4.385028,2.81164 7.281334,7.729362 7.281334,13.317362"
       style="fill:#cccccc;fill-opacity:1;fill-rule:nonzero;stroke:none;stroke-width:0.0352778"
       id="path332" />
    <path
       d="m 95.97965,60.297649 c -0.663222,0 -1.199445,-0.536222 -1.199445,-1.199445 0,-5.005917 -2.515305,-9.606139 -6.727472,-12.308417 -2.356556,-1.509889 -5.083528,-2.307167 -7.884584,-2.307167 -3.915834,0 -7.595306,1.527528 -10.357556,4.303889 -2.744612,2.76225 -4.258028,6.424084 -4.258028,10.311695 0,0.663223 -0.536223,1.199445 -1.199445,1.199445 -0.659694,0 -1.199444,-0.536222 -1.199444,-1.199445 0,-4.526139 1.760361,-8.787695 4.956528,-12.005028 3.217333,-3.231445 7.500056,-5.009445 12.057945,-5.009445 3.263195,0 6.434667,0.931333 9.179278,2.688167 4.903612,3.14325 7.831667,8.498417 7.831667,14.326306 0,0.663223 -0.53975,1.199445 -1.199444,1.199445"
       style="fill:#808080;fill-opacity:1;fill-rule:nonzero;stroke:none;stroke-width:0.0352778"
       id="path334" />
    <path
       d="m 139.41365,-2.0664106 c -6.15244,0 -11.15836,5.005917 -11.15836,11.1583618 V 96.397401 c 0,8.057449 6.55814,14.615589 14.61559,14.615589 7.52827,0 13.92413,-5.87375 14.55913,-13.366755 0.0247,-0.328084 0.18698,-0.631473 0.44803,-0.839612 0.25753,-0.204611 0.58914,-0.292805 0.91722,-0.246944 0.70203,0.102306 1.41112,0.151694 2.10256,0.151694 8.06097,0 14.61558,-6.554611 14.61558,-14.612056 0,-2.998611 -0.90311,-5.880806 -2.61408,-8.336139 -0.19403,-0.282223 -0.26105,-0.635 -0.17992,-0.970139 0.0811,-0.331612 0.29987,-0.613834 0.60325,-0.776112 4.80131,-2.543528 7.78581,-7.493 7.78581,-12.92225 0,-3.894667 -1.51342,-7.556501 -4.26508,-10.315223 -0.45509,-0.458611 -0.4692,-1.188861 -0.0317,-1.661584 1.91911,-2.074333 2.97744,-4.758972 2.97744,-7.567084 0,-5.203472 -3.69005,-9.786056 -8.77358,-10.893778 -0.3175,-0.06703 -0.59267,-0.261056 -0.762,-0.536222 -0.17286,-0.275167 -0.22578,-0.606778 -0.14464,-0.924278 0.28575,-1.157111 0.43039,-2.345972 0.43039,-3.534834 0,-8.060972 -6.55461,-14.6155839 -14.61206,-14.6155839 -1.30528,0 -2.61055,0.1763889 -3.87703,0.5221112 -0.34925,0.098778 -0.72319,0.03175 -1.01952,-0.1834445 -0.29281,-0.2116667 -0.47625,-0.5432778 -0.49389,-0.9066389 -0.32103,-5.912556 -5.207,-10.5445285 -11.12309,-10.5445285 z m 3.45723,115.4747606 c -9.38037,0 -17.01095,-7.63059 -17.01095,-17.010949 V 9.0919512 c 0,-7.4753615 6.07836,-13.553723 13.55372,-13.553723 6.71336,0 12.33311,4.90361139 13.36675,11.4053062 1.03717,-0.1975555 2.09198,-0.2963333 3.14678,-0.2963333 9.38036,0 17.01095,7.6341119 17.01095,17.0144729 0,0.991306 -0.0882,1.982612 -0.25753,2.959806 5.57036,1.749778 9.50383,7.006167 9.50383,12.929306 0,3.037417 -1.016,5.961945 -2.88572,8.343195 2.71992,3.100917 4.20864,7.037918 4.20864,11.200696 0,5.884333 -3.01272,11.285361 -7.9375,14.389806 1.53458,2.607028 2.34244,5.559778 2.34244,8.614834 0,9.380362 -7.63411,17.010945 -17.01447,17.010945 -0.40569,0 -0.81492,-0.01411 -1.22767,-0.04586 -1.29469,8.135058 -8.4455,14.343948 -16.79927,14.343948"
       style="fill:#808080;fill-opacity:1;fill-rule:nonzero;stroke:none;stroke-width:0.0352778"
       id="path336" />
    <path
       d="m 145.46732,20.088035 c 0,2.663473 -2.159,4.818945 -4.81895,4.818945 -2.66347,0 -4.82247,-2.155472 -4.82247,-4.818945 0,-2.663472 2.159,-4.818944 4.82247,-4.818944 2.65995,0 4.81895,2.155472 4.81895,4.818944"
       style="fill:#e5261f;fill-opacity:0.5;fill-rule:nonzero;stroke:#ff00ff;stroke-width:0.0352778"
       id="path338" />
    <path
       d="m 140.64837,16.465007 c -1.99672,0 -3.62302,1.626306 -3.62302,3.623028 0,1.996723 1.6263,3.623028 3.62302,3.623028 1.99673,0 3.61951,-1.626305 3.61951,-3.623028 0,-1.996722 -1.62278,-3.623028 -3.61951,-3.623028 z m 0,9.641418 c -3.31963,0 -6.01838,-2.698751 -6.01838,-6.01839 0,-3.319639 2.69875,-6.018389 6.01838,-6.018389 3.31612,0 6.01839,2.69875 6.01839,6.018389 0,3.319639 -2.70227,6.01839 -6.01839,6.01839"
       style="fill:#808080;fill-opacity:1;fill-rule:nonzero;stroke:none;stroke-width:0.0352778"
       id="path340" />
    <path
       d="m 145.46732,86.269151 c 0,2.663472 -2.159,4.822472 -4.81895,4.822472 -2.66347,0 -4.82247,-2.159 -4.82247,-4.822472 0,-2.659945 2.159,-4.818945 4.82247,-4.818945 2.65995,0 4.81895,2.159 4.81895,4.818945"
       style="fill:#e5261f;fill-opacity:0.5;fill-rule:nonzero;stroke:#ff00ff;stroke-width:0.0352778"
       id="path342" />
    <path
       d="m 140.64837,82.64965 c -1.99672,0 -3.62302,1.622778 -3.62302,3.619501 0,1.996722 1.6263,3.623028 3.62302,3.623028 1.99673,0 3.61951,-1.626306 3.61951,-3.623028 0,-1.996723 -1.62278,-3.619501 -3.61951,-3.619501 z m 0,9.63789 c -3.31963,0 -6.01838,-2.69875 -6.01838,-6.018389 0,-3.316112 2.69875,-6.01839 6.01838,-6.01839 3.31612,0 6.01839,2.702278 6.01839,6.01839 0,3.319639 -2.70227,6.018389 -6.01839,6.018389"
       style="fill:#808080;fill-opacity:1;fill-rule:nonzero;stroke:none;stroke-width:0.0352778"
       id="path344" />
    <path
       d="m 164.51732,51.188926 c 0,2.663473 -2.15547,4.822473 -4.81894,4.822473 -2.65995,0 -4.81895,-2.159 -4.81895,-4.822473 0,-2.659944 2.159,-4.818945 4.81895,-4.818945 2.66347,0 4.81894,2.159001 4.81894,4.818945"
       style="fill:#e5261f;fill-opacity:0.5;fill-rule:nonzero;stroke:#ff00ff;stroke-width:0.0352778"
       id="path346" />
    <path
       d="m 159.69838,47.569426 c -1.99673,0 -3.6195,1.622778 -3.6195,3.6195 0,1.996722 1.62277,3.623028 3.6195,3.623028 1.99672,0 3.62302,-1.626306 3.62302,-3.623028 0,-1.996722 -1.6263,-3.6195 -3.62302,-3.6195 z m 0,9.637889 c -3.31964,0 -6.01839,-2.69875 -6.01839,-6.018389 0,-3.316111 2.69875,-6.018389 6.01839,-6.018389 3.31964,0 6.01839,2.702278 6.01839,6.018389 0,3.319639 -2.69875,6.018389 -6.01839,6.018389"
       style="fill:#808080;fill-opacity:1;fill-rule:nonzero;stroke:none;stroke-width:0.0352778"
       id="path348" />
    <path
       d="m 140.64837,82.64965 c -0.66322,0 -1.19944,-0.536222 -1.19944,-1.199444 V 67.667177 c 0,-0.663222 0.53622,-1.199444 1.19944,-1.199444 0.6597,0 1.19592,0.536222 1.19592,1.199444 v 13.783029 c 0,0.663222 -0.53622,1.199444 -1.19592,1.199444"
       style="fill:#808080;fill-opacity:1;fill-rule:nonzero;stroke:none;stroke-width:0.0352778"
       id="path350" />
    <path
       d="m 140.64837,55.672732 c -0.66322,0 -1.19944,-0.536222 -1.19944,-1.199445 V 24.90698 c 0,-0.659694 0.53622,-1.195917 1.19944,-1.195917 0.6597,0 1.19592,0.536223 1.19592,1.195917 v 29.566307 c 0,0.663223 -0.53622,1.199445 -1.19592,1.199445"
       style="fill:#808080;fill-opacity:1;fill-rule:nonzero;stroke:none;stroke-width:0.0352778"
       id="path352" />
    <path
       d="m 157.43707,47.569426 c -0.42333,0 -0.83256,-0.225778 -1.05128,-0.620889 l -12.89755,-23.44914 c -0.3175,-0.578556 -0.10584,-1.308806 0.47272,-1.626306 0.58208,-0.321028 1.3088,-0.109361 1.62983,0.472722 l 12.89403,23.445613 c 0.32103,0.582083 0.10936,1.308805 -0.47272,1.629833 -0.18345,0.09878 -0.381,0.148167 -0.57503,0.148167"
       style="fill:#808080;fill-opacity:1;fill-rule:nonzero;stroke:none;stroke-width:0.0352778"
       id="path354" />
  </g>
</svg>
