<?xml version="1.0" encoding="UTF-8" standalone="no"?>
<!-- Created with Inkscape (http://www.inkscape.org/) -->

<svg
   width="183.20895mm"
   height="233.09793mm"
   viewBox="0 0 183.20895 233.09793"
   version="1.1"
   id="svg1824"
   inkscape:version="1.2.1 (9c6d41e, 2022-07-14)"
   sodipodi:docname="treasure.svg"
   xmlns:inkscape="http://www.inkscape.org/namespaces/inkscape"
   xmlns:sodipodi="http://sodipodi.sourceforge.net/DTD/sodipodi-0.dtd"
   xmlns="http://www.w3.org/2000/svg"
   xmlns:svg="http://www.w3.org/2000/svg">
  <sodipodi:namedview
     id="namedview1826"
     pagecolor="#ffffff"
     bordercolor="#666666"
     borderopacity="1.0"
     inkscape:showpageshadow="2"
     inkscape:pageopacity="0.0"
     inkscape:pagecheckerboard="0"
     inkscape:deskcolor="#d1d1d1"
     inkscape:document-units="mm"
     showgrid="false"
     inkscape:zoom="0.2102413"
     inkscape:cx="363.86761"
     inkscape:cy="473.26571"
     inkscape:window-width="1440"
     inkscape:window-height="847"
     inkscape:window-x="0"
     inkscape:window-y="25"
     inkscape:window-maximized="0"
     inkscape:current-layer="layer1" />
  <defs
     id="defs1821" />
  <g
     inkscape:label="Layer 1"
     inkscape:groupmode="layer"
     id="layer1"
     transform="translate(-9.0734837,-24.400187)">
    <path
       d="m 24.174563,193.25728 c -1.03011,0 -2.04258,-0.508 -2.6423,-1.44286 -5.77145,-8.99584 -9.93423,-18.84539 -12.3754498,-29.2735 -0.39511,-1.68275 0.65264,-3.37256 2.3424498,-3.76767 1.67569,-0.381 3.37255,0.64911 3.76414,2.34244 2.27894,9.72609 6.16302,18.91948 11.54994,27.31206 0.93486,1.45697 0.51153,3.39725 -0.94544,4.33211 -0.52564,0.33867 -1.11478,0.49742 -1.69334,0.49742"
       style="fill:#808080;fill-opacity:1;fill-rule:nonzero;stroke:none;stroke-width:0.0352778"
       id="path70" />
    <path
       d="m 100.77321,235.24842 c -24.877887,0 -48.648057,-9.76489 -66.488027,-27.60839 -1.22414,-1.22414 -1.22414,-3.21028 0,-4.43442 1.22413,-1.22414 3.21027,-1.22414 4.43441,0 19.05353,19.05706 45.36723,28.23634 72.153647,25.19892 1.77094,-0.23283 3.2773,1.04422 3.4678,2.75872 0.19756,1.72156 -1.04069,3.27731 -2.75872,3.47134 -3.61597,0.40922 -7.22489,0.61383 -10.80911,0.61383"
       style="fill:#808080;fill-opacity:1;fill-rule:nonzero;stroke:none;stroke-width:0.0352778"
       id="path72" />
    <path
       d="m 89.064513,257.49812 c -0.80433,0 -1.60514,-0.30692 -2.21897,-0.92075 -1.22414,-1.22414 -1.22414,-3.20675 0,-4.43442 L 107.58535,231.40314 86.845543,210.66686 c -1.22414,-1.22766 -1.22414,-3.21027 0,-4.43441 1.22414,-1.22414 3.21028,-1.22414 4.43442,0 l 22.955247,22.95525 c 1.22414,1.22414 1.22414,3.20675 0,4.43441 l -22.955247,22.95526 c -0.61031,0.61383 -1.41464,0.92075 -2.21545,0.92075"
       style="fill:#808080;fill-opacity:1;fill-rule:nonzero;stroke:none;stroke-width:0.0352778"
       id="path74" />
    <path
       d="m 102.98865,188.40306 c -11.384137,0 -23.904217,-2.83281 -33.439807,-6.88975 -1.59455,-0.67734 -2.33891,-2.51884 -1.65805,-4.11339 0.67733,-1.59103 2.51883,-2.33892 4.11339,-1.65806 13.41614,5.70795 34.138307,8.98172 46.115107,3.82764 4.13456,-1.778 6.88975,-4.44853 8.18092,-7.92692 2.02142,-5.43983 1.95086,-9.93069 -0.21167,-13.74069 -3.33022,-5.87022 -11.78278,-10.20586 -24.44044,-12.54125 -15.673917,-2.89631 -33.429227,-8.79475 -31.541867,-28.92073 0.67028,-7.11553 4.65314,-13.26444 11.22186,-17.31433 11.20776,-6.91445 28.186947,-6.76275 46.594897,0.42686 1.61572,0.63147 2.413,2.45181 1.78505,4.06047 -0.63147,1.61573 -2.46239,2.40948 -4.064,1.78153 -16.55586,-6.46642 -31.510107,-6.80156 -41.020997,-0.93133 -4.85775,2.99508 -7.79286,7.45419 -8.26911,12.55889 -1.13595,12.07205 6.52286,18.49614 26.433637,22.16855 14.74258,2.72345 24.41928,7.97631 28.75492,15.61395 3.09033,5.44336 3.30552,11.84275 0.63852,19.02178 -1.91205,5.14703 -5.81025,9.02053 -11.58169,11.50408 -4.98475,2.15195 -11.1125,3.0727 -17.61067,3.0727"
       style="fill:#808080;fill-opacity:1;fill-rule:nonzero;stroke:none;stroke-width:0.0352778"
       id="path76" />
    <path
       d="m 101.72923,200.43984 c -1.732127,0 -3.136187,-1.40053 -3.136187,-3.1362 V 82.3263 c 0,-1.73214 1.40406,-3.13619 3.136187,-3.13619 1.73214,0 3.1362,1.40405 3.1362,3.13619 v 114.97734 c 0,1.73567 -1.40406,3.1362 -3.1362,3.1362"
       style="fill:#808080;fill-opacity:1;fill-rule:nonzero;stroke:none;stroke-width:0.0352778"
       id="path78" />
    <path
       d="m 189.14405,123.20619 c -1.42523,0 -2.71287,-0.97367 -3.05153,-2.42358 -2.27895,-9.72609 -6.16303,-18.91595 -11.54642,-27.31206 -0.93486,-1.45697 -0.51153,-3.39725 0.94545,-4.33211 1.45344,-0.93839 3.39372,-0.51506 4.33211,0.94544 5.77144,8.99584 9.93422,18.84539 12.37544,29.27351 0.39511,1.68275 -0.65264,3.37255 -2.33892,3.76766 -0.23988,0.0529 -0.4833,0.0811 -0.71613,0.0811"
       style="fill:#808080;fill-opacity:1;fill-rule:nonzero;stroke:none;stroke-width:0.0352778"
       id="path80" />
    <path
       d="m 164.85529,79.60991 c -0.8008,0 -1.60513,-0.30339 -2.21544,-0.91722 -19.05353,-19.05706 -45.37428,-28.23634 -72.157167,-25.19892 -1.79211,0.2152 -3.27378,-1.04069 -3.46781,-2.75872 -0.19755,-1.72156 1.0407,-3.27731 2.75873,-3.47134 28.730217,-3.25613 56.888937,6.58284 77.297137,26.99456 1.22767,1.22414 1.22767,3.21028 0,4.43442 -0.61031,0.61383 -1.41464,0.91722 -2.21545,0.91722"
       style="fill:#808080;fill-opacity:1;fill-rule:nonzero;stroke:none;stroke-width:0.0352778"
       id="path82" />
    <path
       d="m 112.29493,76.58661 c -0.80433,0 -1.60514,-0.30692 -2.21897,-0.92075 L 87.120713,52.7106 c -1.22414,-1.22413 -1.22414,-3.20675 0,-4.43441 L 110.07596,25.32094 c 1.22766,-1.22767 3.21028,-1.22767 4.43441,0 1.22414,1.22413 1.22414,3.20675 0,4.43441 L 93.774103,50.49516 114.51037,71.23144 c 1.22414,1.22767 1.22414,3.21028 0,4.43442 -0.6103,0.61383 -1.41463,0.92075 -2.21544,0.92075"
       style="fill:#808080;fill-opacity:1;fill-rule:nonzero;stroke:none;stroke-width:0.0352778"
       id="path84" />
  </g>
</svg>
