<?xml version="1.0" encoding="UTF-8" standalone="no"?>
<!-- Created with Inkscape (http://www.inkscape.org/) -->

<svg
   width="183.20895mm"
   height="233.09793mm"
   viewBox="0 0 183.20895 233.09793"
   version="1.1"
   id="svg1824"
   inkscape:version="1.2.1 (9c6d41e, 2022-07-14)"
   sodipodi:docname="treasure.svg"
   xml:space="preserve"
   xmlns:inkscape="http://www.inkscape.org/namespaces/inkscape"
   xmlns:sodipodi="http://sodipodi.sourceforge.net/DTD/sodipodi-0.dtd"
   xmlns="http://www.w3.org/2000/svg"
   xmlns:svg="http://www.w3.org/2000/svg"><sodipodi:namedview
     id="namedview1826"
     pagecolor="#ffffff"
     bordercolor="#666666"
     borderopacity="1.0"
     inkscape:showpageshadow="2"
     inkscape:pageopacity="0.0"
     inkscape:pagecheckerboard="0"
     inkscape:deskcolor="#d1d1d1"
     inkscape:document-units="mm"
     showgrid="false"
     inkscape:zoom="0.2102413"
     inkscape:cx="118.91098"
     inkscape:cy="473.26571"
     inkscape:window-width="1440"
     inkscape:window-height="847"
     inkscape:window-x="492"
     inkscape:window-y="1465"
     inkscape:window-maximized="0"
     inkscape:current-layer="layer1" /><defs
     id="defs1821"><style
       id="style9511">.cls-1{fill:#f8991d;}.cls-2{fill:#fff;}</style><style
       id="style9561">.cls-1{fill:#f8991d;}.cls-2{fill:#fff;}</style></defs><g
     inkscape:label="Layer 1"
     inkscape:groupmode="layer"
     id="layer1"
     transform="translate(-9.0734837,-24.400187)"><path
       d="m 24.174563,193.25728 c -1.03011,0 -2.04258,-0.508 -2.6423,-1.44286 -5.77145,-8.99584 -9.93423,-18.84539 -12.3754498,-29.2735 -0.39511,-1.68275 0.65264,-3.37256 2.3424498,-3.76767 1.67569,-0.381 3.37255,0.64911 3.76414,2.34244 2.27894,9.72609 6.16302,18.91948 11.54994,27.31206 0.93486,1.45697 0.51153,3.39725 -0.94544,4.33211 -0.52564,0.33867 -1.11478,0.49742 -1.69334,0.49742"
       style="fill:#808080;fill-opacity:1;fill-rule:nonzero;stroke:none;stroke-width:0.0352778"
       id="path70" /><path
       d="m 100.77321,235.24842 c -24.877887,0 -48.648057,-9.76489 -66.488027,-27.60839 -1.22414,-1.22414 -1.22414,-3.21028 0,-4.43442 1.22413,-1.22414 3.21027,-1.22414 4.43441,0 19.05353,19.05706 45.36723,28.23634 72.153647,25.19892 1.77094,-0.23283 3.2773,1.04422 3.4678,2.75872 0.19756,1.72156 -1.04069,3.27731 -2.75872,3.47134 -3.61597,0.40922 -7.22489,0.61383 -10.80911,0.61383"
       style="fill:#808080;fill-opacity:1;fill-rule:nonzero;stroke:none;stroke-width:0.0352778"
       id="path72" /><path
       d="m 89.064513,257.49812 c -0.80433,0 -1.60514,-0.30692 -2.21897,-0.92075 -1.22414,-1.22414 -1.22414,-3.20675 0,-4.43442 L 107.58535,231.40314 86.845543,210.66686 c -1.22414,-1.22766 -1.22414,-3.21027 0,-4.43441 1.22414,-1.22414 3.21028,-1.22414 4.43442,0 l 22.955247,22.95525 c 1.22414,1.22414 1.22414,3.20675 0,4.43441 l -22.955247,22.95526 c -0.61031,0.61383 -1.41464,0.92075 -2.21545,0.92075"
       style="fill:#808080;fill-opacity:1;fill-rule:nonzero;stroke:none;stroke-width:0.0352778"
       id="path74" /><path
       d="m 189.14405,123.20619 c -1.42523,0 -2.71287,-0.97367 -3.05153,-2.42358 -2.27895,-9.72609 -6.16303,-18.91595 -11.54642,-27.31206 -0.93486,-1.45697 -0.51153,-3.39725 0.94545,-4.33211 1.45344,-0.93839 3.39372,-0.51506 4.33211,0.94544 5.77144,8.99584 9.93422,18.84539 12.37544,29.27351 0.39511,1.68275 -0.65264,3.37255 -2.33892,3.76766 -0.23988,0.0529 -0.4833,0.0811 -0.71613,0.0811"
       style="fill:#808080;fill-opacity:1;fill-rule:nonzero;stroke:none;stroke-width:0.0352778"
       id="path80" /><path
       d="m 164.85529,79.60991 c -0.8008,0 -1.60513,-0.30339 -2.21544,-0.91722 -19.05353,-19.05706 -45.37428,-28.23634 -72.157167,-25.19892 -1.79211,0.2152 -3.27378,-1.04069 -3.46781,-2.75872 -0.19755,-1.72156 1.0407,-3.27731 2.75873,-3.47134 28.730217,-3.25613 56.888937,6.58284 77.297137,26.99456 1.22767,1.22414 1.22767,3.21028 0,4.43442 -0.61031,0.61383 -1.41464,0.91722 -2.21545,0.91722"
       style="fill:#808080;fill-opacity:1;fill-rule:nonzero;stroke:none;stroke-width:0.0352778"
       id="path82" /><path
       d="m 112.29493,76.58661 c -0.80433,0 -1.60514,-0.30692 -2.21897,-0.92075 L 87.120713,52.7106 c -1.22414,-1.22413 -1.22414,-3.20675 0,-4.43441 L 110.07596,25.32094 c 1.22766,-1.22767 3.21028,-1.22767 4.43441,0 1.22414,1.22413 1.22414,3.20675 0,4.43441 L 93.774103,50.49516 114.51037,71.23144 c 1.22414,1.22767 1.22414,3.21028 0,4.43442 -0.6103,0.61383 -1.41463,0.92075 -2.21544,0.92075"
       style="fill:#808080;fill-opacity:1;fill-rule:nonzero;stroke:none;stroke-width:0.0352778"
       id="path84" /><g
       id="g9559"
       transform="matrix(0.25556787,0.0684792,-0.0684792,0.25556787,66.92309,82.514276)"
       style="fill:#e5261f;fill-opacity:0.50196081"><rect
         x="166.06"
         y="2.8299999"
         width="27.889999"
         height="47.650002"
         id="rect9539"
         style="fill:#e5261f;fill-opacity:0.50196081" /><rect
         x="166.06"
         y="310.35001"
         width="27.889999"
         height="47.650002"
         id="rect9541"
         style="fill:#e5261f;fill-opacity:0.50196081" /><rect
         x="166.06"
         y="6.8400002"
         width="27.889999"
         height="198.86"
         transform="rotate(90,180.01,106.27)"
         id="rect9543"
         style="fill:#e5261f;fill-opacity:0.50196081" /><rect
         x="166.06"
         y="80.5"
         width="27.889999"
         height="198.86"
         transform="rotate(90,180.01,179.93)"
         id="rect9545"
         style="fill:#e5261f;fill-opacity:0.50196081" /><rect
         x="166.06"
         y="152.08"
         width="27.889999"
         height="198.86"
         transform="rotate(90,180.01,251.51)"
         id="rect9547"
         style="fill:#e5261f;fill-opacity:0.50196081" /></g></g></svg>
